<svg xmlns="http://www.w3.org/2000/svg" xmlns:xlink="http://www.w3.org/1999/xlink" version="1.1" style="enable-background:new 0 0 52.077 52.077;" xml:space="preserve" width="51" height="52"><rect id="backgroundrect" width="100%" height="100%" x="0" y="0" fill="none" stroke="none"/>
















<g class="currentLayer" style=""><title>Layer 1</title><path d="M51.039,7 c0,-4.596 -12.577,-7 -25,-7 s-25,2.404 -25,7 c0,1.042 0.6510000000000001,1.969 1.796,2.783 l17.204,23.54 v17.528 c0,0.43000000000000005 0.256,0.8130000000000001 0.6520000000000001,0.979 l0.6860000000000002,0.24600000000000002 l10.662,-10.663 v-8.087 L49.224,9.809 l-0.0010000000000000002,-0.012000000000000002 C50.379,8.98 51.039,8.047 51.039,7 zM26.039,2 c14.04,0 23,2.9610000000000003 23,5 c0,0.42200000000000004 -0.404,0.8830000000000001 -1.135,1.3490000000000002 l-0.05100000000000001,-0.006000000000000002 l0.017000000000000005,0.027000000000000007 C45.033,10.151 37.133,12 26.039,12 C14.934,12 7.029,10.148 4.2,8.365 l0.017000000000000005,-0.027000000000000007 L3.805,8.093 C3.314,7.715 3.039,7.344 3.039,7 C3.039,4.961 11.999,2 26.039,2 zM30.039,40.586 l-8,8 V34 h8 V40.586 zM30.533,32 h-8.987 L6.615,11.567 C11.438,13.174 18.763,14 26.039,14 c7.276,0 14.6,-0.8260000000000001 19.424,-2.432 L30.533,32 z" fill="#ffffff" id="svg_1" class="selected" fill-opacity="1"/><g id="svg_2" class="">
</g><g id="svg_3" class="">
</g><g id="svg_4" class="">
</g><g id="svg_5" class="">
</g><g id="svg_6" class="">
</g><g id="svg_7" class="">
</g><g id="svg_8" class="">
</g><g id="svg_9" class="">
</g><g id="svg_10" class="">
</g><g id="svg_11" class="">
</g><g id="svg_12" class="">
</g><g id="svg_13" class="">
</g><g id="svg_14" class="">
</g><g id="svg_15" class="">
</g><g id="svg_16" class="">
</g></g></svg>